<svg width="52" height="52" viewBox="0 0 52 52" fill="none" xmlns="http://www.w3.org/2000/svg">
<path d="M12.088 27.5015C11.287 26.7004 11.287 25.4016 12.088 24.6005C12.8892 23.7994 14.188 23.7994 14.9891 24.6005L15.8975 25.5089L20.5215 20.8849L14.4218 18.067C13.4812 17.6324 13.0124 16.5646 13.3289 15.5781C13.6456 14.5915 14.6482 13.9958 15.6659 14.1898L25.3686 16.0379L28.4982 12.9082C29.2993 12.1071 30.5982 12.1071 31.3992 12.9082C32.2002 13.7093 32.2002 15.0081 31.3992 15.8091L28.2695 18.9389L30.1176 28.6414C30.3115 29.6593 29.7158 30.6618 28.7293 30.9785C28.5219 31.0449 28.3106 31.0768 28.1026 31.0768C27.3215 31.0768 26.5835 30.6283 26.2405 29.8855L23.4225 23.786L18.7986 28.4099L19.707 29.3184C20.508 30.1195 20.508 31.4184 19.707 32.2194C19.3065 32.6199 18.7815 32.8202 18.2566 32.8202C17.7316 32.8202 17.2066 32.6199 16.806 32.2195L12.088 27.5015ZM49.436 8.40996C48.3031 8.40996 47.3847 9.32832 47.3847 10.4612C47.3847 30.8207 30.8671 47.3843 10.5643 47.3843C9.43133 47.3843 8.51297 48.3027 8.51297 49.4356C8.51297 50.5685 9.43133 51.4869 10.5643 51.4869C16.1016 51.4869 21.4696 50.4016 26.5193 48.2614C31.3945 46.1952 35.7703 43.2367 39.5252 39.4682C43.2775 35.7021 46.223 31.3148 48.2799 26.4276C50.4082 21.3711 51.4873 15.9993 51.4873 10.4612C51.4873 9.32832 50.569 8.40996 49.436 8.40996Z" fill="white"/>
<path d="M52 2.5641C52 3.9802 50.852 5.1282 49.4359 5.1282C48.0198 5.1282 46.8718 3.9802 46.8718 2.5641C46.8718 1.148 48.0198 0 49.4359 0C50.852 0 52 1.148 52 2.5641ZM2.5641 46.8718C1.148 46.8718 0 48.0198 0 49.4359C0 50.852 1.148 52 2.5641 52C3.9802 52 5.1282 50.852 5.1282 49.4359C5.1282 48.0198 3.9802 46.8718 2.5641 46.8718Z" fill="white"/>
</svg>
