<svg width="167" height="168" viewBox="0 0 167 168" fill="none" xmlns="http://www.w3.org/2000/svg">
<rect x="0.586806" y="1.7616" width="165.652" height="165.652" rx="82.7396" stroke="#3A3A3A" stroke-width="1.17361"/>
<path d="M166.825 83.4126C166.825 66.9151 161.933 50.7882 152.768 37.071C143.602 23.3539 130.575 12.6627 115.333 6.3494C100.092 0.0361038 83.32 -1.61574 67.1396 1.60275C50.9591 4.82124 36.0964 12.7655 24.431 24.431L27.2887 27.2887C38.389 16.1885 52.5315 8.6291 67.928 5.56655C83.3245 2.50399 99.2834 4.07581 113.787 10.0832C128.29 16.0906 140.686 26.2638 149.407 39.3163C158.129 52.3689 162.784 67.7145 162.784 83.4126H166.825Z" fill="#00E9BF"/>
</svg>
