<svg width="39" height="39" viewBox="0 0 39 39" fill="none" xmlns="http://www.w3.org/2000/svg">
<path d="M9.06617 20.6263C8.4654 20.0254 8.4654 19.0514 9.06617 18.4505C9.66702 17.8497 10.6412 17.8497 11.2419 18.4505L11.9232 19.1318L15.3913 15.6638L10.8165 13.5503C10.111 13.2244 9.7594 12.4236 9.99679 11.6837C10.2343 10.9437 10.9863 10.497 11.7496 10.6424L19.0266 12.0285L21.3738 9.68127C21.9746 9.08042 22.9488 9.08042 23.5496 9.68127C24.1503 10.2821 24.1503 11.2562 23.5496 11.857L21.2023 14.2043L22.5883 21.4812C22.7338 22.2446 22.287 22.9965 21.5471 23.234C21.3916 23.2838 21.2331 23.3077 21.0771 23.3077C20.4913 23.3077 19.9378 22.9714 19.6805 22.4143L17.567 17.8396L14.0991 21.3076L14.7804 21.9889C15.3812 22.5897 15.3812 23.5639 14.7804 24.1647C14.48 24.465 14.0863 24.6153 13.6926 24.6153C13.2989 24.6153 12.9051 24.465 12.6046 24.1647L9.06617 20.6263ZM37.0772 6.30757C36.2275 6.30757 35.5387 6.99634 35.5387 7.84604C35.5387 23.1157 23.1505 35.5384 7.92332 35.5384C7.07363 35.5384 6.38486 36.2271 6.38486 37.0768C6.38486 37.9265 7.07363 38.6153 7.92332 38.6153C12.0763 38.6153 16.1023 37.8014 19.8896 36.1962C23.546 34.6465 26.8279 32.4277 29.644 29.6013C32.4583 26.7767 34.6674 23.4862 36.2101 19.8208C37.8063 16.0284 38.6157 11.9996 38.6157 7.84604C38.6157 6.99634 37.9269 6.30757 37.0772 6.30757Z" fill="white"/>
<path d="M39 1.92308C39 2.98516 38.139 3.84616 37.077 3.84616C36.0149 3.84616 35.1539 2.98516 35.1539 1.92308C35.1539 0.861001 36.0149 0 37.077 0C38.139 0 39 0.861001 39 1.92308ZM1.92308 35.1539C0.861001 35.1539 0 36.0149 0 37.077C0 38.139 0.861001 39 1.92308 39C2.98516 39 3.84616 38.139 3.84616 37.077C3.84616 36.0149 2.98516 35.1539 1.92308 35.1539Z" fill="white"/>
</svg>
