<svg width="39" height="39" viewBox="0 0 39 39" fill="none" xmlns="http://www.w3.org/2000/svg">
<path d="M9.06605 20.6263C8.46528 20.0254 8.46528 19.0514 9.06605 18.4505C9.66689 17.8497 10.641 17.8497 11.2418 18.4505L11.9231 19.1318L15.3911 15.6638L10.8164 13.5503C10.1109 13.2244 9.75928 12.4236 9.99666 11.6837C10.2342 10.9437 10.9862 10.497 11.7494 10.6424L19.0264 12.0285L21.3737 9.68127C21.9745 9.08042 22.9487 9.08042 23.5494 9.68127C24.1502 10.2821 24.1502 11.2562 23.5494 11.857L21.2021 14.2043L22.5882 21.4812C22.7337 22.2446 22.2869 22.9965 21.547 23.234C21.3914 23.2838 21.233 23.3077 21.077 23.3077C20.4911 23.3077 19.9377 22.9714 19.6804 22.4143L17.5669 17.8396L14.099 21.3076L14.7803 21.9889C15.3811 22.5897 15.3811 23.5639 14.7803 24.1647C14.4799 24.465 14.0861 24.6153 13.6924 24.6153C13.2987 24.6153 12.905 24.465 12.6045 24.1647L9.06605 20.6263ZM37.0771 6.30757C36.2274 6.30757 35.5386 6.99634 35.5386 7.84604C35.5386 23.1157 23.1504 35.5384 7.9232 35.5384C7.07351 35.5384 6.38474 36.2271 6.38474 37.0768C6.38474 37.9265 7.07351 38.6153 7.9232 38.6153C12.0762 38.6153 16.1022 37.8014 19.8895 36.1962C23.5459 34.6465 26.8278 32.4277 29.6439 29.6013C32.4581 26.7767 34.6673 23.4862 36.21 19.8208C37.8062 16.0284 38.6155 11.9996 38.6155 7.84604C38.6155 6.99634 37.9268 6.30757 37.0771 6.30757Z" fill="black"/>
<path d="M39 1.92308C39 2.98516 38.139 3.84616 37.077 3.84616C36.0149 3.84616 35.1539 2.98516 35.1539 1.92308C35.1539 0.861001 36.0149 0 37.077 0C38.139 0 39 0.861001 39 1.92308ZM1.92308 35.1539C0.861001 35.1539 0 36.0149 0 37.077C0 38.139 0.861001 39 1.92308 39C2.98516 39 3.84616 38.139 3.84616 37.077C3.84616 36.0149 2.98516 35.1539 1.92308 35.1539Z" fill="black"/>
</svg>
