<svg width="26" height="23" viewBox="0 0 26 23" fill="none" xmlns="http://www.w3.org/2000/svg">
<path d="M12.8109 23.0001C12.4415 23.0001 12.084 22.9524 11.786 22.8451C7.2337 21.284 0 15.7425 0 7.55546C0 3.38447 3.37255 0 7.51971 0C9.53371 0 11.4166 0.786531 12.8109 2.19275C14.2052 0.786531 16.0881 0 18.1021 0C22.2493 0 25.6218 3.39638 25.6218 7.55546C25.6218 15.7544 18.3881 21.284 13.8358 22.8451C13.5379 22.9524 13.1803 23.0001 12.8109 23.0001ZM7.51971 1.78757C4.36167 1.78757 1.78757 4.37359 1.78757 7.55546C1.78757 15.6949 9.61713 20.2234 12.37 21.1648C12.5845 21.2363 13.0493 21.2363 13.2638 21.1648C16.0047 20.2234 23.8462 15.7068 23.8462 7.55546C23.8462 4.37359 21.2721 1.78757 18.114 1.78757C16.3026 1.78757 14.6223 2.63369 13.5379 4.09949C13.2042 4.55234 12.4415 4.55234 12.1078 4.09949C10.9995 2.62177 9.33111 1.78757 7.51971 1.78757Z" fill="white"/>
</svg>
