<svg width="13" height="13" viewBox="0 0 13 13" fill="none" xmlns="http://www.w3.org/2000/svg">
<path d="M12.9996 6.46051C13.0009 6.66737 12.9199 6.86627 12.7745 7.01343C12.6292 7.16059 12.4313 7.24398 12.2244 7.24523L7.28448 7.27525L7.3145 12.2152C7.31575 12.422 7.23478 12.6209 7.0894 12.7681C6.94401 12.9152 6.74612 12.9986 6.53925 12.9999C6.33239 13.0011 6.13349 12.9202 5.98633 12.7748C5.83917 12.6294 5.75578 12.4315 5.75453 12.2246L5.72451 7.28472L0.784605 7.31474C0.57774 7.31599 0.378848 7.23502 0.231684 7.08963C0.0845197 6.94425 0.00113748 6.74635 -0.000119327 6.53949C-0.00137613 6.33262 0.0795954 6.13373 0.224982 5.98657C0.370369 5.8394 0.568262 5.75602 0.775127 5.75476L5.71504 5.72475L5.68502 0.784844C5.68377 0.577979 5.76474 0.379087 5.91013 0.231923C6.05551 0.0847583 6.25341 0.00137613 6.46027 0.000119327C6.66714 -0.00113748 6.86603 0.079834 7.01319 0.225221C7.16036 0.370608 7.24374 0.568501 7.24499 0.775366L7.27501 5.71527L12.2149 5.68526C12.4218 5.68401 12.6207 5.76498 12.7678 5.91036C12.915 6.05575 12.9984 6.25364 12.9996 6.46051Z" fill="#A855F7"/>
</svg>
