<svg width="66" height="64" viewBox="0 0 66 64" fill="none" xmlns="http://www.w3.org/2000/svg">
<g filter="url(#filter0_d_207_1170)">
<rect x="4" width="58" height="56" rx="28" fill="#212121"/>
<rect x="4" width="58" height="56" rx="28" fill="#141414"/>
<path d="M22.1543 13.9523H24.7748C25.515 13.9523 25.8851 13.9523 26.1548 14.1599C26.4245 14.3676 26.5191 14.7254 26.7084 15.4409L26.9924 16.5149C27.2944 17.6569 27.4454 18.2279 27.8255 18.6089C27.9485 18.7322 28.0871 18.8389 28.2377 18.9263C28.7032 19.1963 29.2938 19.1963 30.4751 19.1963V19.1963" stroke="white" stroke-width="2" stroke-linecap="round"/>
<path d="M41.5694 30.9954H27.0112C26.4106 30.9954 26.1104 30.9954 25.9031 30.8945C25.5958 30.7449 25.3862 30.4488 25.3473 30.1092C25.3211 29.8803 25.421 29.5971 25.6207 29.0307V29.0307C25.8348 28.4234 25.9419 28.1197 26.1155 27.8821C26.3725 27.5306 26.7371 27.2726 27.154 27.1472C27.4359 27.0624 27.7578 27.0624 28.4018 27.0624H36.0222" stroke="white" stroke-width="2" stroke-linecap="round" stroke-linejoin="round"/>
<path d="M37.7732 27.0624H31.058C29.4538 27.0624 28.6518 27.0624 28.0941 26.5945C27.5365 26.1265 27.3972 25.3366 27.1187 23.7569L26.9354 22.7172C26.6476 21.0843 26.5036 20.2679 26.9532 19.7321C27.4028 19.1963 28.2318 19.1963 29.8899 19.1963H41.0226C42.5061 19.1963 43.2479 19.1963 43.5394 19.6803C43.831 20.1643 43.4842 20.82 42.7906 22.1314L41.3091 24.9325C40.7603 25.97 40.486 26.4888 40.0098 26.7756C39.5337 27.0624 38.9469 27.0624 37.7732 27.0624Z" fill="white" stroke="white" stroke-width="2" stroke-linecap="round"/>
<ellipse cx="40.1826" cy="34.9286" rx="1.38679" ry="1.31102" fill="white"/>
<ellipse cx="29.0883" cy="34.9286" rx="1.38679" ry="1.31102" fill="white"/>
</g>
<defs>
<filter id="filter0_d_207_1170" x="0" y="0" width="66" height="64" filterUnits="userSpaceOnUse" color-interpolation-filters="sRGB">
<feFlood flood-opacity="0" result="BackgroundImageFix"/>
<feColorMatrix in="SourceAlpha" type="matrix" values="0 0 0 0 0 0 0 0 0 0 0 0 0 0 0 0 0 0 127 0" result="hardAlpha"/>
<feOffset dy="4"/>
<feGaussianBlur stdDeviation="2"/>
<feComposite in2="hardAlpha" operator="out"/>
<feColorMatrix type="matrix" values="0 0 0 0 0 0 0 0 0 0 0 0 0 0 0 0 0 0 0.25 0"/>
<feBlend mode="normal" in2="BackgroundImageFix" result="effect1_dropShadow_207_1170"/>
<feBlend mode="normal" in="SourceGraphic" in2="effect1_dropShadow_207_1170" result="shape"/>
</filter>
</defs>
</svg>
