<svg width="13" height="13" viewBox="0 0 13 13" fill="none" xmlns="http://www.w3.org/2000/svg">
<path d="M12.9998 6.46051C13.001 6.66737 12.9201 6.86627 12.7747 7.01343C12.6293 7.16059 12.4314 7.24398 12.2245 7.24523L7.28461 7.27525L7.31462 12.2152C7.31588 12.422 7.23491 12.6209 7.08952 12.7681C6.94414 12.9152 6.74624 12.9986 6.53938 12.9999C6.33251 13.0011 6.13362 12.9202 5.98646 12.7748C5.83929 12.6294 5.75591 12.4315 5.75465 12.2246L5.72464 7.28472L0.784732 7.31474C0.577867 7.31599 0.378975 7.23502 0.231811 7.08963C0.0846466 6.94425 0.00126443 6.74635 7.6262e-06 6.53949C-0.00124918 6.33262 0.0797223 6.13373 0.225109 5.98657C0.370496 5.8394 0.568389 5.75602 0.775254 5.75476L5.71516 5.72475L5.68515 0.784844C5.68389 0.577979 5.76487 0.379087 5.91025 0.231923C6.05564 0.0847583 6.25353 0.00137613 6.4604 0.000119327C6.66726 -0.00113748 6.86615 0.079834 7.01332 0.225221C7.16048 0.370608 7.24387 0.568501 7.24512 0.775366L7.27513 5.71527L12.215 5.68526C12.4219 5.68401 12.6208 5.76498 12.768 5.91036C12.9151 6.05575 12.9985 6.25364 12.9998 6.46051Z" fill="#00E9BF"/>
</svg>
