<svg width="29" height="29" viewBox="0 0 29 29" fill="none" xmlns="http://www.w3.org/2000/svg">
<path fill-rule="evenodd" clip-rule="evenodd" d="M4.53126 13.2917C4.53126 8.45344 8.45344 4.53126 13.2917 4.53126C18.1299 4.53126 22.0521 8.45344 22.0521 13.2917C22.0521 18.1299 18.1299 22.0521 13.2917 22.0521C8.45344 22.0521 4.53126 18.1299 4.53126 13.2917ZM13.2917 2.71875C7.45242 2.71875 2.71875 7.45242 2.71875 13.2917C2.71875 19.131 7.45242 23.8646 13.2917 23.8646C15.885 23.8646 18.2603 22.9309 20.0997 21.3814L23.5259 24.8075C23.8798 25.1614 24.4536 25.1614 24.8075 24.8075C25.1614 24.4536 25.1614 23.8798 24.8075 23.5259L21.3814 20.0997C22.9309 18.2603 23.8646 15.885 23.8646 13.2917C23.8646 7.45242 19.131 2.71875 13.2917 2.71875Z" fill="#00E9BF"/>
</svg>
