<svg width="33" height="34" viewBox="0 0 33 34" fill="none" xmlns="http://www.w3.org/2000/svg">
<path d="M4.05688 13.3333C4.05688 12.3904 4.05688 11.919 4.34978 11.6261C4.64267 11.3333 5.11408 11.3333 6.05688 11.3333H26.3985C27.3414 11.3333 27.8128 11.3333 28.1056 11.6261C28.3985 11.919 28.3985 12.3904 28.3985 13.3333V16.4166C28.3985 17.3594 28.3985 17.8308 28.1056 18.1237C27.8128 18.4166 27.3413 18.4166 26.3985 18.4166H26.3416C25.3988 18.4166 24.9274 18.4166 24.6345 18.7095C24.3416 19.0024 24.3416 19.4738 24.3416 20.4166V26.3332C24.3416 27.2761 24.3416 27.7475 24.0487 28.0404C23.7558 28.3333 23.2844 28.3333 22.3416 28.3333H10.1138C9.17102 28.3333 8.69961 28.3333 8.40672 28.0404C8.11383 27.7475 8.11383 27.2761 8.11383 26.3333V20.4166C8.11383 19.4738 8.11383 19.0024 7.82093 18.7095C7.52804 18.4166 7.05664 18.4166 6.11383 18.4166H6.05688C5.11408 18.4166 4.64267 18.4166 4.34978 18.1237C4.05688 17.8308 4.05688 17.3594 4.05688 16.4166V13.3333Z" stroke="white" stroke-width="2"/>
<path d="M6.7616 18.4167H25.694" stroke="white" stroke-width="2" stroke-linecap="round"/>
<path d="M16.2278 9.91675L16.2278 28.3334" stroke="white" stroke-width="2" stroke-linecap="round"/>
<path d="M16.2278 9.91667L14.6763 8.29131C13.474 7.03178 11.9898 6.07567 10.3459 5.50162L9.42094 5.17863C8.12084 4.72464 6.7616 5.68973 6.7616 7.06682V8.49663C6.7616 9.34704 7.29938 10.1045 8.10225 10.3848L10.8185 11.3333" stroke="white" stroke-width="2" stroke-linecap="round"/>
<path d="M16.2278 9.91667L17.7793 8.29131C18.9816 7.03178 20.4658 6.07567 22.1097 5.50162L23.0346 5.17863C24.3347 4.72464 25.694 5.68973 25.694 7.06682V8.49663C25.694 9.34704 25.1562 10.1045 24.3533 10.3848L21.637 11.3333" stroke="white" stroke-width="2" stroke-linecap="round"/>
</svg>
