<svg width="177" height="41" viewBox="0 0 177 41" fill="none" xmlns="http://www.w3.org/2000/svg">
<g clip-path="url(#clip0_165_748)" filter="url(#filter0_d_165_748)">
<mask id="mask0_165_748" style="mask-type:luminance" maskUnits="userSpaceOnUse" x="0" y="8" width="28" height="33">
<path d="M0 8.57397H27.8129V40.6649H0V8.57397Z" fill="white"/>
</mask>
<g mask="url(#mask0_165_748)">
<path fill-rule="evenodd" clip-rule="evenodd" d="M27.8131 29.4115C27.4821 32.1944 26.5866 34.4874 25.1692 36.3215C22.8564 39.2954 19.786 40.767 15.7736 40.6594C10.5304 40.5562 7.69769 38.5662 4.43848 35.3133C1.65033 32.5546 -0.000488281 28.0585 -0.000488281 24.6694C-0.000488281 22.3588 0.566053 20.9157 1.55909 18.4623C2.64337 15.8859 3.87194 14.6339 5.57369 13.002C8.6886 9.96651 12.3255 8.57397 16.1979 8.57397C19.3128 8.57397 21.9121 9.37347 23.9428 10.9395C25.5936 12.2398 26.3978 13.7949 26.3978 15.6069C26.3978 16.6195 26.0668 17.4497 25.5002 18.1306C24.8849 18.7983 24.1316 19.1432 23.2808 19.1432C22.3832 19.1432 21.6278 18.7896 21.0125 18.0625C20.3992 17.3575 20.0704 16.5163 20.0704 15.5147C20.0704 14.5021 20.5881 13.4325 21.5323 12.2925L21.77 11.6292C21.77 10.3685 19.8815 9.84571 16.1491 9.74687C12.2767 9.62387 10.0105 10.6891 8.49976 12.4595C6.9423 14.3374 6.75133 18.1943 6.75133 23.58V27.0547C6.75133 30.96 6.84681 33.8153 7.74437 35.8009C8.83077 38.2653 11.4746 39.6381 15.2516 39.6381C18.3686 39.6381 20.9191 38.7683 22.9497 36.9826C24.9337 35.1903 26.209 32.6754 26.7734 29.4115H27.8131Z" fill="black"/>
</g>
<path fill-rule="evenodd" clip-rule="evenodd" d="M40.8002 17.3825C41.2245 15.5595 41.8866 13.9956 42.7353 12.6954C44.5304 9.99595 46.8433 8.63855 49.5826 8.63855C51.0467 8.63855 52.1798 9.04709 53.0773 9.84439C53.9282 10.6373 54.3993 11.6674 54.3993 12.9831C54.3993 13.9847 54.1149 14.8171 53.5505 15.4475C53.0307 16.0976 52.322 16.3788 51.4244 16.3788C50.5269 16.3788 49.7736 16.0976 49.2049 15.4651C48.6384 14.8457 48.3095 14.0637 48.3095 13.0709C48.3095 11.9112 48.8739 10.9097 49.9603 10.0992C49.9136 9.92786 46.4189 10.6812 44.7193 12.3813C43.9172 13.2137 43.2552 14.0242 42.8308 14.8171C42.4043 15.6056 41.9799 16.8005 41.5067 18.3709C40.989 19.9326 40.8002 22.2169 40.8002 25.2326V38.4924H47.0809V39.7641H29.4205V38.4924H34.9926V11.2084H29.4205V9.98497H36.55C38.4852 9.98497 39.9026 9.31725 40.8002 8.01038V17.3825Z" fill="black"/>
<path fill-rule="evenodd" clip-rule="evenodd" d="M69.4166 8.3147C72.6737 8.3147 75.8862 9.65891 78.9077 12.3342C82.5913 15.6574 84.4798 19.6461 84.4798 24.353C84.4798 28.658 82.9223 32.4688 79.7586 35.7898C76.6416 38.9966 73.1002 40.6395 69.1322 40.6395C64.8821 40.6395 61.2474 38.9702 58.0815 35.669C56.5729 34.1096 55.3931 32.3239 54.5422 30.3888C53.6913 28.4208 53.267 26.4748 53.267 24.5727C53.267 22.4377 53.7868 20.294 54.8244 18.1503C55.862 16.0395 57.3282 14.166 59.1679 12.5626C62.3804 9.74677 65.8285 8.3147 69.4166 8.3147ZM77.8701 29.9891V19.2353C77.8701 17.0411 77.7747 15.4751 77.5391 14.5284C77.3503 13.6323 76.8304 12.7625 76.1217 11.941C74.5155 10.2607 72.2493 9.41511 69.2277 9.41511C66.0619 9.41511 63.7024 10.2058 62.2383 11.7982C60.6808 13.3643 59.9254 15.7979 59.9254 19.1431V29.787C59.9254 33.3935 60.6808 35.9326 62.2383 37.4415C62.8048 38.0346 63.7978 38.5419 65.1198 38.9241C66.4884 39.3349 67.8591 39.5435 69.2744 39.5435C70.8807 39.5435 72.3427 39.2953 73.5712 38.8055C74.8932 38.3135 75.8374 37.6436 76.4039 36.8024C77.397 35.3813 77.8701 33.108 77.8701 29.9891Z" fill="black"/>
<path fill-rule="evenodd" clip-rule="evenodd" d="M95.7183 16.2083C96.427 13.9262 97.7956 12.0592 99.8284 10.6074C101.906 9.15774 104.219 8.43731 106.816 8.43731C110.17 8.43731 112.721 9.50917 114.372 11.6836C115.223 12.8411 115.742 14.4555 115.978 16.619C116.827 14.0821 118.198 12.0922 120.133 10.6381C122.021 9.21484 124.289 8.48563 126.84 8.48563C130.097 8.48563 132.645 9.50917 134.394 11.5892C135.196 12.5336 135.718 13.5945 135.951 14.6752C136.236 15.78 136.331 17.5832 136.331 20.1355V38.4932H141.903V39.765H124.763V38.4932H130.381V15.8656C130.381 11.8923 128.728 9.92868 125.516 9.92868C122.494 9.92868 119.99 11.4574 118.009 14.528C116.687 16.6871 115.978 18.5123 115.978 20.0564V38.4932H121.501V39.765H104.503V38.4932H110.17V14.7455C110.17 13.153 109.793 11.9406 109.035 11.073C108.231 10.1593 107.147 9.69806 105.731 9.69806C103.605 9.69806 101.528 10.5481 99.5908 12.2591C97.7023 13.9943 96.427 16.1556 95.7183 18.7891V38.4932H101.197V39.765H84.3854V38.4932H89.9129V11.2092H84.3854V9.98579H91.3282C93.6877 9.99458 95.1051 9.31588 95.7183 7.93433V16.2083Z" fill="black"/>
<mask id="mask1_165_748" style="mask-type:luminance" maskUnits="userSpaceOnUse" x="0" y="-1" width="176" height="42">
<path d="M0 40.9993H175.997V-0.000732422H0V40.9993Z" fill="white"/>
</mask>
<g mask="url(#mask1_165_748)">
<path fill-rule="evenodd" clip-rule="evenodd" d="M146.624 3.26499H169.243V-0.00109863H146.624V3.26499ZM163.624 22.4266V15.084C163.624 13.3642 163.389 12.1517 162.964 11.4291C162.491 10.6801 161.643 10.1376 160.367 9.78619C159.328 9.53799 158.052 9.4062 156.495 9.4062C154.04 9.4062 152.196 9.76642 150.827 10.511C149.552 11.2073 148.892 12.0397 148.892 13.0018C148.892 13.3839 149.174 13.8144 149.694 14.2449C150.639 15.0159 151.205 15.9164 151.205 16.9378C151.205 17.9283 150.874 18.7322 150.354 19.3428C149.79 19.9622 149.032 20.2566 148.183 20.2566C147.193 20.2566 146.437 19.9139 145.869 19.2242C145.255 18.5302 144.924 17.6516 144.924 16.5688C144.924 14.2823 146.057 12.334 148.324 10.6889C150.592 9.0372 153.236 8.21135 156.351 8.21135C159.988 8.21135 163.909 8.87687 166.693 10.7307C168.299 11.7125 168.819 12.613 169.245 13.5443C169.623 14.4536 169.763 15.6265 169.763 17.1816V30.4085C169.858 34.1775 170.141 36.3915 170.234 36.9824C170.518 38.2431 171.416 38.7966 172.454 38.7329C173.542 38.6451 174.2 38.0828 174.817 35.6799H175.997C174.864 39.9651 172.973 40.4681 170.33 40.4792C168.537 40.4879 166.788 39.8773 165.797 39.047C164.806 38.1662 164.144 36.9824 163.909 35.3812C162.964 37.0021 161.5 38.2651 159.61 39.1349C157.723 40.0288 155.926 40.4792 153.422 40.4792C149.836 40.4792 147.193 39.6971 145.491 38.1333C143.838 36.6727 142.989 34.9309 142.989 33.0332C142.989 31.3903 143.602 29.7671 144.735 28.2186C145.915 26.646 147.381 25.5214 149.128 24.812C150.923 24.0783 152.763 23.5117 155.455 23.0768C158.101 22.6375 160.696 22.4266 163.2 22.4266H163.624ZM163.624 23.5798H163.2C157.061 23.5798 153 24.3727 151.016 25.9014C149.648 26.9535 149.032 28.8204 149.032 31.5638C149.032 34.1775 149.457 36.0401 150.354 37.1361C151.252 38.2058 152.763 38.7681 154.889 38.7681C156.87 38.7681 158.619 38.2848 160.272 37.3404C161.829 36.3915 162.964 35.1308 163.624 33.5757V23.5798Z" fill="black"/>
</g>
<path fill-rule="evenodd" clip-rule="evenodd" d="M146.624 3.26499H169.243V-0.00109863H146.624V3.26499Z" fill="#00E9BF"/>
</g>
<defs>
<filter id="filter0_d_165_748" x="-28" y="-17" width="247" height="111" filterUnits="userSpaceOnUse" color-interpolation-filters="sRGB">
<feFlood flood-opacity="0" result="BackgroundImageFix"/>
<feColorMatrix in="SourceAlpha" type="matrix" values="0 0 0 0 0 0 0 0 0 0 0 0 0 0 0 0 0 0 127 0" result="hardAlpha"/>
<feOffset dx="7" dy="18"/>
<feGaussianBlur stdDeviation="17.5"/>
<feComposite in2="hardAlpha" operator="out"/>
<feColorMatrix type="matrix" values="0 0 0 0 0 0 0 0 0 0 0 0 0 0 0 0 0 0 0.29 0"/>
<feBlend mode="normal" in2="BackgroundImageFix" result="effect1_dropShadow_165_748"/>
<feBlend mode="normal" in="SourceGraphic" in2="effect1_dropShadow_165_748" result="shape"/>
</filter>
<clipPath id="clip0_165_748">
<rect width="177" height="41" fill="white"/>
</clipPath>
</defs>
</svg>
