<svg width="14" height="17" viewBox="0 0 14 17" fill="none" xmlns="http://www.w3.org/2000/svg">
<path fill-rule="evenodd" clip-rule="evenodd" d="M7.4206 16.8891C8.93215 16.0466 14 12.824 14 7.48618C14 3.35168 10.866 0 7 0C3.13401 0 0 3.35168 0 7.48618C0 12.824 5.06785 16.0466 6.5794 16.8891C6.84384 17.0365 7.15615 17.0365 7.4206 16.8891ZM7 10.6945C8.65685 10.6945 10 9.25811 10 7.48618C10 5.71425 8.65685 4.27782 7 4.27782C5.34315 4.27782 4 5.71425 4 7.48618C4 9.25811 5.34315 10.6945 7 10.6945Z" fill="white"/>
</svg>
