<svg width="37" height="40" viewBox="0 0 37 40" fill="none" xmlns="http://www.w3.org/2000/svg">
<path d="M29.6681 15.7803C29.6681 15.7803 28.8345 27.0053 28.3509 31.7337C28.1206 33.992 26.8356 35.3153 24.7308 35.357C20.7254 35.4353 16.7154 35.4403 12.7115 35.3487C10.6866 35.3037 9.42307 33.9636 9.19739 31.7453C8.71072 26.9753 7.8817 15.7803 7.8817 15.7803M31.7918 10.3995H5.75741M26.7753 10.3995C25.5701 10.3995 24.5323 9.47448 24.2959 8.19282L23.9228 6.16615C23.6925 5.23115 22.9126 4.58448 22.0237 4.58448H15.5251C14.6362 4.58448 13.8563 5.23115 13.6261 6.16615L13.253 8.19282C13.0166 9.47448 11.9788 10.3995 10.7736 10.3995" stroke="#8F959E" stroke-width="1.3" stroke-linecap="round" stroke-linejoin="round"/>
</svg>
