<svg width="139" height="22" viewBox="0 0 139 22" fill="none" xmlns="http://www.w3.org/2000/svg">
<path fill-rule="evenodd" clip-rule="evenodd" d="M21.1562 7.61438C21.0193 7.21345 20.6577 6.93026 20.2355 6.89738L14.1888 6.41691L11.5722 0.62472C11.4014 0.243949 11.0227 0 10.6059 0C10.1891 0 9.81043 0.243949 9.63967 0.62366L7.02305 6.41691L0.976314 6.89738C0.561602 6.93026 0.204164 7.20284 0.0630984 7.59422C-0.0779675 7.9856 0.0217332 8.42365 0.319775 8.71426L4.78827 13.0703L3.20791 19.9136C3.11033 20.3368 3.2811 20.777 3.63853 21.0241C3.82097 21.1493 4.03097 21.2129 4.24204 21.2129C4.44675 21.2129 4.65251 21.1535 4.8307 21.0347L10.6059 17.1846L16.3811 21.0347C16.7502 21.2808 17.235 21.2712 17.5956 21.0093C17.9541 20.7473 18.1121 20.288 17.9901 19.8617L16.0502 13.0735L20.8613 8.74396C21.1763 8.45971 21.2919 8.01636 21.1562 7.61438Z" fill="#00A79B"/>
<path fill-rule="evenodd" clip-rule="evenodd" d="M50.8544 7.61438C50.7176 7.21345 50.3559 6.93026 49.9338 6.89738L43.887 6.41691L41.2704 0.62472C41.0997 0.243949 40.721 0 40.3042 0C39.8874 0 39.5087 0.243949 39.3379 0.62366L36.7213 6.41691L30.6746 6.89738C30.2599 6.93026 29.9024 7.20284 29.7614 7.59422C29.6203 7.9856 29.72 8.42365 30.018 8.71426L34.4865 13.0703L32.9062 19.9136C32.8086 20.3368 32.9794 20.777 33.3368 21.0241C33.5192 21.1493 33.7292 21.2129 33.9403 21.2129C34.145 21.2129 34.3508 21.1535 34.529 21.0347L40.3042 17.1846L46.0794 21.0347C46.4485 21.2808 46.9332 21.2712 47.2938 21.0093C47.6523 20.7473 47.8104 20.288 47.6884 19.8617L45.7485 13.0735L50.5596 8.74396C50.8746 8.45971 50.9902 8.01636 50.8544 7.61438Z" fill="#00A79B"/>
<path fill-rule="evenodd" clip-rule="evenodd" d="M79.5484 7.61438C79.4116 7.21345 79.0499 6.93026 78.6278 6.89738L72.581 6.41691L69.9644 0.62472C69.7937 0.243949 69.415 0 68.9982 0C68.5813 0 68.2027 0.243949 68.0319 0.62366L65.4153 6.41691L59.3686 6.89738C58.9539 6.93026 58.5964 7.20284 58.4554 7.59422C58.3143 7.9856 58.414 8.42365 58.712 8.71426L63.1805 13.0703L61.6002 19.9136C61.5026 20.3368 61.6734 20.777 62.0308 21.0241C62.2132 21.1493 62.4232 21.2129 62.6343 21.2129C62.839 21.2129 63.0448 21.1535 63.223 21.0347L68.9982 17.1846L74.7734 21.0347C75.1425 21.2808 75.6272 21.2712 75.9878 21.0093C76.3463 20.7473 76.5044 20.288 76.3824 19.8617L74.4425 13.0735L79.2536 8.74396C79.5686 8.45971 79.6842 8.01636 79.5484 7.61438Z" fill="#00A79B"/>
<path fill-rule="evenodd" clip-rule="evenodd" d="M109.246 7.61438C109.109 7.21345 108.747 6.93026 108.325 6.89738L102.278 6.41691L99.6618 0.62472C99.4911 0.243949 99.1124 0 98.6956 0C98.2788 0 97.9001 0.243949 97.7293 0.62366L95.1127 6.41691L89.066 6.89738C88.6513 6.93026 88.2938 7.20284 88.1528 7.59422C88.0117 7.9856 88.1114 8.42365 88.4094 8.71426L92.8779 13.0703L91.2976 19.9136C91.2 20.3368 91.3708 20.777 91.7282 21.0241C91.9106 21.1493 92.1206 21.2129 92.3317 21.2129C92.5364 21.2129 92.7422 21.1535 92.9204 21.0347L98.6956 17.1846L104.471 21.0347C104.84 21.2808 105.325 21.2712 105.685 21.0093C106.044 20.7473 106.202 20.288 106.08 19.8617L104.14 13.0735L108.951 8.74396C109.266 8.45971 109.382 8.01636 109.246 7.61438Z" fill="#00A79B"/>
<path fill-rule="evenodd" clip-rule="evenodd" d="M138.944 7.61438C138.807 7.21345 138.445 6.93026 138.023 6.89738L131.977 6.41691L129.36 0.62472C129.189 0.243949 128.811 0 128.394 0C127.977 0 127.598 0.243949 127.427 0.62366L124.811 6.41691L118.764 6.89738C118.349 6.93026 117.992 7.20284 117.851 7.59422C117.71 7.9856 117.81 8.42365 118.108 8.71426L122.576 13.0703L120.996 19.9136C120.898 20.3368 121.069 20.777 121.426 21.0241C121.609 21.1493 121.819 21.2129 122.03 21.2129C122.235 21.2129 122.44 21.1535 122.619 21.0347L128.394 17.1846L134.169 21.0347C134.538 21.2808 135.023 21.2712 135.383 21.0093C135.742 20.7473 135.9 20.288 135.778 19.8617L133.838 13.0735L138.649 8.74396C138.964 8.45971 139.08 8.01636 138.944 7.61438Z" fill="#F4F4F4"/>
</svg>
