<svg width="52" height="52" viewBox="0 0 52 52" fill="none" xmlns="http://www.w3.org/2000/svg">
<path d="M12.0879 27.5015C11.2869 26.7004 11.2869 25.4016 12.0879 24.6005C12.8891 23.7994 14.1879 23.7994 14.9889 24.6005L15.8974 25.5089L20.5214 20.8849L14.4217 18.067C13.481 17.6324 13.0122 16.5646 13.3287 15.5781C13.6455 14.5915 14.6481 13.9958 15.6658 14.1898L25.3684 16.0379L28.4981 12.9082C29.2992 12.1071 30.5981 12.1071 31.3991 12.9082C32.2001 13.7093 32.2001 15.0081 31.3991 15.8091L28.2694 18.9389L30.1175 28.6414C30.3114 29.6593 29.7157 30.6618 28.7291 30.9785C28.5218 31.0449 28.3105 31.0768 28.1025 31.0768C27.3214 31.0768 26.5834 30.6283 26.2403 29.8855L23.4224 23.786L18.7985 28.4099L19.7069 29.3184C20.5079 30.1195 20.5079 31.4184 19.7069 32.2194C19.3064 32.6199 18.7814 32.8202 18.2564 32.8202C17.7315 32.8202 17.2065 32.6199 16.8059 32.2195L12.0879 27.5015ZM49.4359 8.40996C48.303 8.40996 47.3846 9.32832 47.3846 10.4612C47.3846 30.8207 30.867 47.3843 10.5641 47.3843C9.43121 47.3843 8.51285 48.3027 8.51285 49.4356C8.51285 50.5685 9.43121 51.4869 10.5641 51.4869C16.1015 51.4869 21.4695 50.4016 26.5192 48.2614C31.3944 46.1952 35.7702 43.2367 39.525 39.4682C43.2773 35.7021 46.2229 31.3148 48.2798 26.4276C50.4081 21.3711 51.4872 15.9993 51.4872 10.4612C51.4872 9.32832 50.5688 8.40996 49.4359 8.40996Z" fill="black"/>
<path d="M52 2.5641C52 3.9802 50.852 5.1282 49.4359 5.1282C48.0198 5.1282 46.8718 3.9802 46.8718 2.5641C46.8718 1.148 48.0198 0 49.4359 0C50.852 0 52 1.148 52 2.5641ZM2.5641 46.8718C1.148 46.8718 0 48.0198 0 49.4359C0 50.852 1.148 52 2.5641 52C3.9802 52 5.1282 50.852 5.1282 49.4359C5.1282 48.0198 3.9802 46.8718 2.5641 46.8718Z" fill="black"/>
</svg>
