<svg width="139" height="22" viewBox="0 0 139 22" fill="none" xmlns="http://www.w3.org/2000/svg">
<path fill-rule="evenodd" clip-rule="evenodd" d="M21.1561 7.61437C21.0193 7.21344 20.6576 6.93025 20.2355 6.89737L14.1888 6.4169L11.5722 0.62472C11.4014 0.243948 11.0227 0 10.6059 0C10.1891 0 9.81042 0.243948 9.63966 0.623659L7.02305 6.4169L0.976313 6.89737C0.561601 6.93025 0.204164 7.20284 0.0630983 7.59422C-0.0779674 7.98559 0.0217332 8.42364 0.319774 8.71426L4.78827 13.0703L3.20791 19.9136C3.11033 20.3368 3.28109 20.777 3.63853 21.0241C3.82096 21.1493 4.03097 21.2129 4.24204 21.2129C4.44674 21.2129 4.65251 21.1535 4.8307 21.0347L10.6059 17.1846L16.3811 21.0347C16.7502 21.2808 17.2349 21.2712 17.5956 21.0093C17.9541 20.7473 18.1121 20.288 17.9901 19.8616L16.0502 13.0735L20.8613 8.74396C21.1763 8.4597 21.2919 8.01635 21.1561 7.61437Z" fill="#00A79B"/>
<path fill-rule="evenodd" clip-rule="evenodd" d="M50.8544 7.61437C50.7176 7.21344 50.3559 6.93025 49.9337 6.89737L43.887 6.4169L41.2704 0.62472C41.0996 0.243948 40.721 0 40.3042 0C39.8873 0 39.5087 0.243948 39.3379 0.623659L36.7213 6.4169L30.6746 6.89737C30.2598 6.93025 29.9024 7.20284 29.7613 7.59422C29.6203 7.98559 29.72 8.42364 30.018 8.71426L34.4865 13.0703L32.9062 19.9136C32.8086 20.3368 32.9793 20.777 33.3368 21.0241C33.5192 21.1493 33.7292 21.2129 33.9403 21.2129C34.145 21.2129 34.3508 21.1535 34.5289 21.0347L40.3042 17.1846L46.0794 21.0347C46.4485 21.2808 46.9332 21.2712 47.2938 21.0093C47.6523 20.7473 47.8103 20.288 47.6884 19.8616L45.7484 13.0735L50.5595 8.74396C50.8745 8.4597 50.9901 8.01635 50.8544 7.61437Z" fill="#00A79B"/>
<path fill-rule="evenodd" clip-rule="evenodd" d="M79.5485 7.61437C79.4116 7.21344 79.05 6.93025 78.6278 6.89737L72.5811 6.4169L69.9645 0.62472C69.7937 0.243948 69.4151 0 68.9982 0C68.5814 0 68.2028 0.243948 68.032 0.623659L65.4154 6.4169L59.3686 6.89737C58.9539 6.93025 58.5965 7.20284 58.4554 7.59422C58.3144 7.98559 58.4141 8.42364 58.7121 8.71426L63.1806 13.0703L61.6002 19.9136C61.5027 20.3368 61.6734 20.777 62.0309 21.0241C62.2133 21.1493 62.4233 21.2129 62.6344 21.2129C62.8391 21.2129 63.0448 21.1535 63.223 21.0347L68.9982 17.1846L74.7734 21.0347C75.1426 21.2808 75.6273 21.2712 75.9879 21.0093C76.3464 20.7473 76.5044 20.288 76.3824 19.8616L74.4425 13.0735L79.2536 8.74396C79.5686 8.4597 79.6842 8.01635 79.5485 7.61437Z" fill="#00A79B"/>
<path fill-rule="evenodd" clip-rule="evenodd" d="M109.246 7.61437C109.109 7.21344 108.747 6.93025 108.325 6.89737L102.278 6.4169L99.6617 0.62472C99.491 0.243948 99.1123 0 98.6955 0C98.2787 0 97.9 0.243948 97.7293 0.623659L95.1126 6.4169L89.0659 6.89737C88.6512 6.93025 88.2938 7.20284 88.1527 7.59422C88.0116 7.98559 88.1113 8.42364 88.4094 8.71426L92.8779 13.0703L91.2975 19.9136C91.1999 20.3368 91.3707 20.777 91.7281 21.0241C91.9106 21.1493 92.1206 21.2129 92.3316 21.2129C92.5363 21.2129 92.7421 21.1535 92.9203 21.0347L98.6955 17.1846L104.471 21.0347C104.84 21.2808 105.325 21.2712 105.685 21.0093C106.044 20.7473 106.202 20.288 106.08 19.8616L104.14 13.0735L108.951 8.74396C109.266 8.4597 109.381 8.01635 109.246 7.61437Z" fill="#F4F4F4"/>
<path fill-rule="evenodd" clip-rule="evenodd" d="M138.944 7.61437C138.807 7.21344 138.445 6.93025 138.023 6.89737L131.977 6.4169L129.36 0.62472C129.189 0.243948 128.811 0 128.394 0C127.977 0 127.598 0.243948 127.428 0.623659L124.811 6.4169L118.764 6.89737C118.349 6.93025 117.992 7.20284 117.851 7.59422C117.71 7.98559 117.81 8.42364 118.108 8.71426L122.576 13.0703L120.996 19.9136C120.898 20.3368 121.069 20.777 121.426 21.0241C121.609 21.1493 121.819 21.2129 122.03 21.2129C122.235 21.2129 122.44 21.1535 122.619 21.0347L128.394 17.1846L134.169 21.0347C134.538 21.2808 135.023 21.2712 135.383 21.0093C135.742 20.7473 135.9 20.288 135.778 19.8616L133.838 13.0735L138.649 8.74396C138.964 8.4597 139.08 8.01635 138.944 7.61437Z" fill="#F4F4F4"/>
</svg>
