<svg width="34" height="34" viewBox="0 0 34 34" fill="none" xmlns="http://www.w3.org/2000/svg">
<path fill-rule="evenodd" clip-rule="evenodd" d="M2.83419 14.5834H31.1659C31.1573 11.234 31.0585 9.4648 29.9219 8.32817C28.6771 7.08337 26.6736 7.08337 22.6667 7.08337H11.3334C7.32644 7.08337 5.32297 7.08337 4.07817 8.32817C2.94154 9.4648 2.84277 11.234 2.83419 14.5834ZM31.1667 16.5834H2.83337V19.8334C2.83337 23.8403 2.83337 25.8438 4.07817 27.0886C5.32297 28.3334 7.32644 28.3334 11.3334 28.3334H22.6667C26.6736 28.3334 28.6771 28.3334 29.9219 27.0886C31.1667 25.8438 31.1667 23.8403 31.1667 19.8334V16.5834ZM9.91671 21.6667C9.36442 21.6667 8.91671 22.1144 8.91671 22.6667C8.91671 23.219 9.36442 23.6667 9.91671 23.6667H9.93087C10.4832 23.6667 10.9309 23.219 10.9309 22.6667C10.9309 22.1144 10.4832 21.6667 9.93087 21.6667H9.91671Z" fill="white"/>
</svg>
