<svg width="18" height="18" viewBox="0 0 18 18" fill="none" xmlns="http://www.w3.org/2000/svg">
<path fill-rule="evenodd" clip-rule="evenodd" d="M3.15786 8.25013C3.15786 5.43775 5.43775 3.15786 8.25013 3.15786C11.0625 3.15786 13.3424 5.43775 13.3424 8.25013C13.3424 11.0625 11.0625 13.3424 8.25013 13.3424C5.43775 13.3424 3.15786 11.0625 3.15786 8.25013ZM8.25013 1.34243C4.43512 1.34243 1.34243 4.43512 1.34243 8.25013C1.34243 12.0651 4.43512 15.1578 8.25013 15.1578C9.83033 15.1578 11.2866 14.6272 12.4505 13.7345L14.3582 15.6421C14.7126 15.9966 15.2874 15.9966 15.6419 15.6421C15.9963 15.2877 15.9963 14.7129 15.6419 14.3584L13.7342 12.4508C14.6271 11.2869 15.1578 9.83048 15.1578 8.25013C15.1578 4.43512 12.0651 1.34243 8.25013 1.34243Z" fill="#00E9BF"/>
</svg>
